<svg xmlns="http://www.w3.org/2000/svg" id="icon-Garage" viewBox="0 0 37 32" fill="#FF7601">
                                                    <path d="M29.463 18.937h-1.601l-1.643-3.892c-0.62-1.467-2.014-2.415-3.553-2.415h-8.301c-1.539 0-2.934 0.948-3.553 2.415l-1.643 3.892h-1.601c-1.42 0-2.575 1.155-2.575 2.576v4.321c0 1.17 0.785 2.16 1.855 2.472v1.113c0 1.423 1.158 2.581 2.581 2.581h2.068c1.423 0 2.581-1.158 2.581-2.581v-1.009h8.875v1.009c0 1.423 1.158 2.581 2.581 2.581h2.068c1.423 0 2.581-1.158 2.581-2.581v-1.113c1.070-0.312 1.855-1.302 1.855-2.472v-4.321c-0-1.421-1.155-2.576-2.575-2.576zM14.365 14.843h8.301c0.648 0 1.243 0.418 1.516 1.063l1.28 3.031h-13.892l1.28-3.031c0.273-0.646 0.868-1.063 1.515-1.063zM29.463 21.149c0.2 0 0.364 0.163 0.364 0.364v4.321c0 0.201-0.163 0.364-0.364 0.364h-21.896c-0.2 0-0.364-0.163-0.364-0.364v-4.321c0-0.201 0.163-0.364 0.364-0.364h21.896zM11.866 29.418c0 0.204-0.166 0.37-0.369 0.37h-2.068c-0.204 0-0.37-0.166-0.37-0.37v-1.009h2.807v1.009zM27.971 29.418c0 0.204-0.166 0.37-0.369 0.37h-2.068c-0.204 0-0.37-0.166-0.37-0.37v-1.009h2.807v1.009z"></path>
                                                    <path d="M14.843 24.779h7.346c0.611 0 1.106-0.495 1.106-1.106s-0.495-1.106-1.106-1.106h-7.346c-0.611 0-1.106 0.495-1.106 1.106s0.495 1.106 1.106 1.106z"></path>
                                                    <path d="M26.393 24.779c0.578 0 1.133-0.509 1.106-1.106-0.027-0.599-0.486-1.106-1.106-1.106-0.579 0-1.133 0.509-1.106 1.106 0.027 0.599 0.486 1.106 1.106 1.106z"></path>
                                                    <path d="M10.638 24.779c0.579 0 1.133-0.509 1.106-1.106-0.027-0.599-0.486-1.106-1.106-1.106-0.579 0-1.133 0.509-1.106 1.106 0.027 0.599 0.486 1.106 1.106 1.106z"></path>
                                                    <path d="M36.397 8.329l-17.409-8.223c-0.299-0.141-0.646-0.141-0.945 0l-17.409 8.223c-0.387 0.183-0.634 0.572-0.634 1v21.565c0 0.611 0.495 1.106 1.106 1.106s1.106-0.495 1.106-1.106v-20.864l16.303-7.7 16.303 7.7v20.864c0 0.611 0.495 1.106 1.106 1.106s1.106-0.495 1.106-1.106v-21.565c0-0.428-0.247-0.817-0.634-1z"></path>
                                                    </svg>