<svg xmlns="http://www.w3.org/2000/svg" id="icon-family" viewBox="0 0 36 32" width="200" height="200" fill="#FF7601">
            <path d="M32.8 0h-29.291c-1.937 0.002-3.507 1.572-3.509 3.509v24.982c0.002 1.937 1.572 3.507 3.509 3.509h29.291c1.937-0.002 3.507-1.572 3.509-3.509v-24.982c-0.002-1.937-1.572-3.507-3.509-3.509zM32.8 31.085h-29.291c-1.432-0.002-2.592-1.162-2.594-2.593v-19.108h34.478v19.108c-0.002 1.432-1.162 2.592-2.593 2.593zM35.394 8.468h-34.478v-4.959c0.001-1.432 1.162-2.592 2.594-2.594h29.291c1.432 0.001 2.592 1.162 2.593 2.594v4.959z"></path>
            <path d="M10.184 2.96h-0.006c-0.975-0.002-1.767 0.788-1.769 1.763s0.788 1.767 1.763 1.769h0.006c0.975 0.002 1.767-0.788 1.768-1.763s-0.788-1.767-1.763-1.768zM10.777 5.329c-0.159 0.159-0.375 0.248-0.599 0.247h-0.003c-0.47-0.001-0.85-0.382-0.849-0.852s0.382-0.85 0.852-0.849h0.003c0.344 0.001 0.653 0.209 0.784 0.527s0.057 0.684-0.187 0.926l-0 0z"></path>
            <path d="M4.308 2.942h-0.006c-0.975-0.002-1.767 0.788-1.769 1.763s0.788 1.767 1.763 1.768h0.005c0.976 0.002 1.767-0.788 1.769-1.763s-0.788-1.767-1.763-1.769zM4.902 5.31c-0.159 0.159-0.375 0.248-0.599 0.247h-0.003c-0.47-0.001-0.85-0.382-0.849-0.852s0.382-0.85 0.852-0.849h0.003c0.344 0.001 0.653 0.209 0.784 0.527s0.057 0.684-0.187 0.926v0z"></path>
            <path d="M16.059 2.978h-0.005c-0.975-0.002-1.767 0.788-1.769 1.763s0.788 1.767 1.763 1.769h0.006c0.975 0.002 1.767-0.788 1.768-1.763s-0.788-1.767-1.763-1.768zM16.653 5.347c-0.273 0.271-0.693 0.325-1.026 0.133s-0.495-0.585-0.395-0.957c0.1-0.371 0.437-0.629 0.821-0.629h0.003c0.344 0.001 0.653 0.209 0.784 0.527s0.057 0.684-0.187 0.926z"></path>
            <path d="M11.942 26.679c0 0.253 0.205 0.458 0.458 0.458h11.511c0.253 0 0.458-0.205 0.458-0.458v-7.347h1.926c0.198 0 0.374-0.128 0.435-0.316s-0.005-0.395-0.166-0.512l-8.139-5.926c-0.161-0.117-0.378-0.117-0.539 0l-8.139 5.926c-0.16 0.116-0.227 0.323-0.166 0.512s0.237 0.316 0.435 0.316h1.926l-0 7.347zM11.422 18.417l6.733-4.902 6.733 4.902h-0.978c-0.253 0-0.458 0.205-0.458 0.458v7.347h-10.595v-7.347c0-0.253-0.205-0.458-0.458-0.458h-0.977z"></path>
            <path d="M18.154 20.274c1.095 0 1.983-0.888 1.983-1.983s-0.888-1.983-1.983-1.983-1.983 0.888-1.983 1.983c0.001 1.095 0.889 1.982 1.983 1.983zM18.154 17.222c0.59 0 1.068 0.478 1.068 1.068s-0.478 1.068-1.068 1.068-1.068-0.478-1.068-1.068c0.001-0.589 0.479-1.067 1.068-1.068z"></path>
          </svg>