<svg xmlns="http://www.w3.org/2000/svg" id="icon-status" viewBox="0 0 32 32" fill="#FF7601">
                                                    <path d="M31.173 10.070c-1.097-1.097-2.881-1.097-3.978 0-0.337 0.338-2.491 2.494-2.821 2.823v-7.429c0-0.751-0.293-1.458-0.824-1.989l-2.652-2.652c-0.531-0.531-1.238-0.824-1.989-0.824h-16.098c-1.551 0-2.813 1.262-2.813 2.813v26.375c0 1.551 1.262 2.813 2.813 2.813h18.75c1.551 0 2.813-1.262 2.813-2.813v-8.336l6.798-6.804c1.099-1.099 1.099-2.878 0-3.977zM18.75 1.875c0.177 0 0.518-0.031 0.824 0.275l2.652 2.652c0.297 0.298 0.275 0.624 0.275 0.824h-3.75v-3.75zM22.5 29.187c0 0.517-0.42 0.938-0.938 0.938h-18.75c-0.517 0-0.938-0.421-0.938-0.938v-26.375c0-0.517 0.421-0.938 0.938-0.938h14.062v4.688c0 0.518 0.42 0.937 0.938 0.937h4.687v7.27c0 0-2.766 2.768-2.766 2.768l-1.325 1.325c-0.103 0.103-0.18 0.228-0.227 0.366l-1.326 3.977c-0.112 0.337-0.025 0.708 0.227 0.959s0.623 0.339 0.959 0.227l3.977-1.326c0.138-0.046 0.264-0.124 0.366-0.227l0.114-0.114v6.46zM20.397 19.527l1.326 1.326-0.506 0.506-1.989 0.663 0.663-1.989 0.506-0.506zM23.049 19.526l-1.326-1.326c0.706-0.707 3.842-3.845 4.507-4.51l1.326 1.326-4.507 4.51zM29.847 12.722l-0.966 0.967-1.326-1.326 0.967-0.968c0.366-0.366 0.96-0.366 1.326 0s0.367 0.958-0 1.326z"></path>
                                                    <path d="M4.138 7.963c0.093 0 0.185-0.018 0.271-0.051v4.568c0 0.414 0.336 0.75 0.75 0.75h2.412c0.414 0 0.75-0.336 0.75-0.75v-1.853h1.006v1.853c0 0.414 0.336 0.75 0.75 0.75h2.412c0.414 0 0.75-0.336 0.75-0.75v-4.567c0.086 0.033 0.178 0.050 0.269 0.050 0.279 0 0.534-0.153 0.664-0.4 0.194-0.366 0.053-0.821-0.312-1.015l-4.713-2.496c-0.108-0.058-0.23-0.088-0.352-0.088s-0.244 0.030-0.354 0.088l-4.647 2.494c-0.178 0.092-0.31 0.247-0.371 0.438s-0.044 0.394 0.048 0.572c0.129 0.251 0.385 0.406 0.667 0.406zM11.74 11.729h-0.912v-1.853c0-0.414-0.336-0.75-0.75-0.75h-2.506c-0.414 0-0.75 0.336-0.75 0.75v1.853h-0.912v-4.616l2.889-1.55 2.942 1.559v4.607z"></path>
                                                    <path d="M3.636 15.568c0 0.407 0.333 0.739 0.739 0.739h15.151c0.407 0 0.739-0.333 0.739-0.739s-0.333-0.739-0.739-0.739h-15.151c-0.407 0-0.739 0.333-0.739 0.739z"></path>
                                                    <path d="M16.757 17.627h-12.382c-0.407 0-0.739 0.333-0.739 0.739s0.333 0.739 0.739 0.739h12.382c0.406 0 0.739-0.333 0.739-0.739s-0.333-0.739-0.739-0.739z"></path>
                                                    <path d="M4.375 20.425c-0.407 0-0.739 0.333-0.739 0.739s0.333 0.739 0.739 0.739h11.047c0.407 0 0.739-0.333 0.739-0.739s-0.333-0.739-0.739-0.739h-11.047z"></path>
                                                    <path d="M15.589 23.962c0-0.406-0.333-0.739-0.739-0.739h-10.475c-0.407 0-0.739 0.333-0.739 0.739s0.333 0.739 0.739 0.739h10.475c0.406 0 0.739-0.333 0.739-0.739z"></path>
                                                    <path d="M19.527 26.021h-5.489c-0.406 0-0.739 0.333-0.739 0.739s0.333 0.739 0.739 0.739h5.489c0.407 0 0.739-0.333 0.739-0.739s-0.333-0.739-0.739-0.739z"></path>
                                                    </svg>