<svg xmlns="http://www.w3.org/2000/svg" id="icon-year" viewBox="0 0 33 32" fill="#FF7601">
    <path d="M30.049 18.712v-8.899c0 0 0 0 0-0.061s0-0.122 0-0.122v-0.061c0-0.061-0.061-0.061-0.061-0.122 0 0 0-0.061-0.061-0.061-0.061-0.061-0.061-0.061-0.122-0.122 0 0 0 0-0.061 0l-12.922-5.242c-0.061 0-0.122-0.061-0.244-0.061h-5.303c0-0.061-0.061-0.183-0.122-0.244l-2.56-3.474c-0.122-0.183-0.305-0.244-0.488-0.244s-0.366 0.061-0.488 0.244l-2.56 3.474c-0.061 0.061-0.061 0.183-0.122 0.244h-4.328c-0.366 0-0.61 0.244-0.61 0.61v5.242c0 0.366 0.244 0.61 0.61 0.61h4.328v13.775c-0.122 0-0.244 0.061-0.366 0.183l-2.865 3.048c-0.061 0.122-0.122 0.305-0.122 0.427v3.535c0 0.366 0.244 0.61 0.61 0.61h11.947c0.366 0 0.61-0.244 0.61-0.61v-3.535c0-0.183-0.061-0.305-0.183-0.427l-2.865-3.048c-0.061-0.122-0.183-0.122-0.366-0.183v-13.775h17.554v8.838c0 0.366 0.244 0.61 0.61 0.61 0.975 0 1.768 0.792 1.768 1.768s-0.792 1.768-1.768 1.768c-0.975 0-1.768-0.792-1.768-1.768 0-0.366-0.244-0.61-0.61-0.61s-0.61 0.244-0.61 0.61c0 1.646 1.341 2.987 2.987 2.987s2.987-1.341 2.987-2.987c-0.061-1.402-1.036-2.621-2.438-2.926zM8.107 1.707l1.707 2.316h-3.413l1.707-2.316zM13.47 28.099v2.682h-10.667v-2.682l2.499-2.682h5.608l2.56 2.682zM10.057 10.971v2.316l-3.901 2.133v-2.316l3.901-2.133zM6.156 11.642v-1.219h2.316l-2.316 1.219zM10.057 14.629v2.316l-3.901 2.133v-2.316l3.901-2.133zM10.057 18.286v2.316l-3.901 2.133v-2.316l3.901-2.133zM10.057 22.004v2.194l-3.901-0.061 3.901-2.133zM1.219 9.204v-4.023h15.299l9.874 4.023h-25.173z"></path>
</svg>