<svg xmlns="http://www.w3.org/2000/svg" id="icon-sofa" viewBox="0 0 41 32" fill="#FF7601">
                                                    <path d="M19.521 8.762c-1.015-0.256-2.091-0.030-2.917 0.614s-1.309 1.632-1.309 2.679v0.28h1.661v-0.28c0.002-1.555 1.058-2.91 2.565-3.292v0z"></path>
                                                    <path d="M17.089 25.881v-0.189c-0.006-1.037-0.679-1.953-1.667-2.27v-3.418c0.010-0.608 0.51-1.093 1.117-1.085h-1.661c-0.608-0.008-1.108 0.477-1.117 1.085v3.418c0.988 0.317 1.66 1.233 1.667 2.27v0.189l1.661-0z"></path>
                                                    <path d="M36.403 18.919h-1.661c0.608-0.008 1.108 0.477 1.117 1.085v3.475c-0.907 0.361-1.505 1.237-1.51 2.213v0.195l1.661 0v-0.195c0.005-0.977 0.603-1.852 1.51-2.213v-3.475c-0.010-0.608-0.509-1.093-1.117-1.085v0z"></path>
                                                    <path d="M13.828 24.557c-0.244-0.17-0.534-0.261-0.831-0.26-0.781-0.010-1.422 0.614-1.434 1.395v5.311h1.661v-5.311c0.002-0.454 0.228-0.879 0.603-1.135z"></path>
                                                    <path d="M38.44 24.297c-0.297-0-0.587 0.090-0.831 0.26 0.375 0.256 0.601 0.68 0.603 1.135v5.311h1.661v-5.311c-0.012-0.781-0.653-1.405-1.434-1.395v0z"></path>
                                                    <path d="M25.669 26.881l-10.242-0.003v1.661l20.582 0.006v-1.661z"></path>
                                                    <path d="M38.517 23.302v-3.298c-0.010-1.158-0.956-2.089-2.114-2.082h-9.121c-0.561-0.003-1.1 0.22-1.495 0.617-0.041 0.042-0.080 0.084-0.117 0.128-0.404-0.474-0.996-0.746-1.619-0.745h-9.173c-1.158-0.008-2.104 0.924-2.114 2.082v3.307c-1.236 0.109-2.187 1.14-2.198 2.381v5.81c0 0.275 0.223 0.498 0.498 0.498h3.864c0.275 0 0.498-0.223 0.498-0.498v-0.664l20.582 0.006v0.658c0 0.275 0.223 0.498 0.498 0.498h3.864c0.275 0 0.498-0.223 0.498-0.498v-5.81c-0.012-1.301-1.053-2.358-2.354-2.39v0zM26.493 19.242c0.209-0.209 0.493-0.326 0.789-0.324h9.121c0.608-0.008 1.108 0.477 1.117 1.085v3.475c-0.907 0.361-1.505 1.237-1.51 2.213v0.195l-9.842-0.003 0.001-5.831c-0.005-0.303 0.112-0.595 0.324-0.811v0zM14.878 18.919h9.172c0.608-0.008 1.108 0.477 1.117 1.085l0.002 5.88-9.743-0.003v-0.189c-0.006-1.037-0.679-1.953-1.667-2.27v-3.418c0.010-0.608 0.51-1.093 1.117-1.085v-0zM14.431 31.003h-2.868v-5.311c0.021-0.777 0.657-1.395 1.434-1.395s1.412 0.618 1.434 1.395v5.311zM15.427 29.84v-2.962l20.582 0.006v2.963l-20.582-0.007zM39.874 31.003h-2.867v-5.311c0.020-0.777 0.656-1.396 1.434-1.396s1.413 0.619 1.434 1.396v5.311z"></path>
                                                    <path d="M17.313 9.63c-0.453 0.32-0.841 0.724-1.143 1.188-0.097 0.149-0.108 0.339-0.027 0.498s0.24 0.263 0.417 0.272c0.178 0.010 0.347-0.076 0.445-0.225 0.234-0.36 0.534-0.672 0.885-0.92 0.223-0.16 0.274-0.469 0.116-0.693s-0.468-0.277-0.692-0.12v0z"></path>
                                                    <path d="M19.176 7.689c-0.227-4.28-3.622-7.689-7.763-7.689-4.273 0-7.752 3.63-7.775 8.101-0.001 0.012-0.002 0.023-0.002 0.035v22.867h-3.137c-0.275 0-0.498 0.223-0.498 0.498s0.223 0.498 0.498 0.498h7.788c0.275 0 0.498-0.223 0.498-0.498s-0.223-0.498-0.498-0.498h-3.653v-22.833c0-0.008 0.001-0.016 0.001-0.024 0-3.942 3.041-7.149 6.779-7.149 3.593 0 6.541 2.964 6.764 6.696-2.21 0.263-3.876 2.135-3.879 4.361v0.779c0 0.275 0.223 0.498 0.498 0.498h2.218c0.22 0.797 0.933 1.387 1.767 1.387s1.547-0.589 1.767-1.387h2.036c0.275 0 0.498-0.223 0.498-0.498v-0.779c-0.003-2.237-1.684-4.115-3.907-4.365v0zM18.781 13.721c-0.281-0.005-0.54-0.151-0.688-0.39h1.376c-0.148 0.238-0.407 0.385-0.688 0.39zM22.086 12.335h-6.791v-0.281c0-1.875 1.52-3.396 3.396-3.396s3.396 1.52 3.396 3.396v0.281z"></path>
                                                    </svg>