<svg xmlns="http://www.w3.org/2000/svg" id="icon-heating" viewBox="0 0 52 32" fill="#FF7601">
                                                    <path d="M50.766 0h-49.879c-0.49-0-0.887 0.396-0.887 0.886 0 0 0 0.001 0 0.001v19.111c0 0.49 0.397 0.887 0.887 0.887h49.879c0.49 0 0.887-0.397 0.887-0.887v-19.111c0-0.49-0.396-0.887-0.886-0.887-0 0-0.001 0-0.001 0zM46.671 19.111h-41.688v-8.001h41.688v8.001zM49.879 19.111h-1.435v-8.89c0-0.49-0.396-0.887-0.886-0.887-0 0-0.001 0-0.001 0h-43.462c-0.49-0-0.887 0.396-0.887 0.886 0 0 0 0.001 0 0.001v8.89h-1.435v-17.337h48.105v17.337z"></path>
                                                    <path d="M7.516 14.326h36.62c0.49 0 0.887-0.397 0.887-0.887s-0.397-0.887-0.887-0.887h-36.62c-0.49 0-0.887 0.397-0.887 0.887s0.397 0.887 0.887 0.887z"></path>
                                                    <path d="M7.516 17.618h36.62c0.49 0 0.887-0.397 0.887-0.887s-0.397-0.887-0.887-0.887h-36.62c-0.49 0-0.887 0.397-0.887 0.887s0.397 0.887 0.887 0.887z"></path>
                                                    <path d="M35.541 7.904h12.016c0.49 0 0.887-0.396 0.887-0.886 0-0 0-0.001 0-0.001v-3.041c0-0.49-0.397-0.887-0.887-0.887h-12.016c-0.49 0-0.887 0.397-0.887 0.887v3.041c-0 0.49 0.396 0.887 0.886 0.887 0 0 0.001 0 0.001 0zM36.428 4.863h10.242v1.267h-10.242v-1.267z"></path>
                                                    <path d="M8.442 26.728c-0.377-0.288-0.807-0.725-0.722-1.172 0.088-0.326 0.33-0.588 0.648-0.702 0.472-0.134 0.746-0.624 0.613-1.096s-0.624-0.746-1.096-0.613c-0.966 0.295-1.696 1.090-1.907 2.078-0.116 0.604-0.089 1.785 1.386 2.913 0.344 0.222 0.521 0.63 0.448 1.033-0.112 0.517-0.493 0.935-0.998 1.093-0.469 0.141-0.735 0.635-0.594 1.104 0.113 0.377 0.461 0.634 0.854 0.631 0.087 0 0.174-0.013 0.257-0.038 1.145-0.346 2.004-1.298 2.23-2.473 0.194-1.059-0.242-2.134-1.119-2.759v0z"></path>
                                                    <path d="M15.666 26.728c-0.377-0.288-0.807-0.725-0.722-1.172 0.088-0.326 0.33-0.588 0.648-0.702 0.469-0.143 0.732-0.639 0.589-1.107-0.139-0.455-0.612-0.719-1.072-0.599-0.966 0.295-1.696 1.090-1.907 2.078-0.116 0.604-0.089 1.785 1.386 2.913 0.344 0.222 0.521 0.63 0.448 1.033-0.112 0.517-0.493 0.935-0.998 1.093-0.469 0.141-0.735 0.635-0.594 1.104 0.113 0.375 0.459 0.632 0.85 0.631 0.087 0 0.174-0.013 0.257-0.038 1.145-0.346 2.004-1.298 2.23-2.473 0.196-1.059-0.239-2.135-1.116-2.761v0z"></path>
                                                    <path d="M22.887 26.728c-0.377-0.288-0.807-0.725-0.722-1.172 0.088-0.326 0.33-0.588 0.648-0.702 0.472-0.134 0.746-0.624 0.613-1.096s-0.624-0.746-1.096-0.613v0c-0.966 0.295-1.696 1.090-1.907 2.078-0.116 0.604-0.089 1.785 1.386 2.913 0.344 0.222 0.521 0.63 0.448 1.033-0.112 0.517-0.493 0.935-0.998 1.093-0.469 0.141-0.735 0.635-0.594 1.104 0.113 0.375 0.459 0.632 0.85 0.631 0.087 0 0.174-0.013 0.257-0.038 1.145-0.346 2.004-1.298 2.23-2.473 0.195-1.058-0.24-2.133-1.115-2.759v0z"></path>
                                                    <path d="M30.111 26.728c-0.377-0.288-0.807-0.725-0.722-1.172 0.088-0.326 0.33-0.588 0.648-0.702 0.469-0.143 0.732-0.639 0.589-1.107-0.139-0.455-0.612-0.719-1.072-0.599-0.966 0.295-1.696 1.090-1.907 2.078-0.116 0.604-0.089 1.785 1.386 2.913 0.344 0.222 0.521 0.63 0.448 1.033-0.112 0.517-0.493 0.935-0.998 1.093-0.469 0.141-0.735 0.635-0.594 1.104 0.113 0.375 0.459 0.632 0.85 0.631 0.087 0 0.174-0.013 0.258-0.038 1.145-0.346 2.004-1.298 2.23-2.473 0.196-1.059-0.239-2.135-1.116-2.761v0z"></path>
                                                    <path d="M37.332 26.728c-0.377-0.288-0.807-0.725-0.722-1.172 0.088-0.326 0.33-0.588 0.648-0.702 0.472-0.134 0.746-0.624 0.613-1.096s-0.624-0.746-1.096-0.613c-0.966 0.295-1.696 1.090-1.907 2.078-0.116 0.604-0.089 1.785 1.386 2.913 0.344 0.222 0.521 0.63 0.448 1.033-0.112 0.517-0.493 0.935-0.998 1.093-0.469 0.141-0.735 0.635-0.594 1.104 0.113 0.377 0.461 0.634 0.854 0.631 0.087 0 0.174-0.013 0.258-0.038 1.145-0.346 2.004-1.298 2.23-2.473 0.194-1.059-0.242-2.134-1.119-2.759v0z"></path>
                                                    <path d="M44.556 26.728c-0.377-0.288-0.807-0.725-0.722-1.172 0.088-0.326 0.33-0.588 0.648-0.702 0.469-0.143 0.732-0.639 0.589-1.107-0.139-0.455-0.612-0.719-1.072-0.599-0.966 0.295-1.696 1.090-1.907 2.078-0.116 0.604-0.089 1.785 1.386 2.913 0.344 0.222 0.521 0.63 0.448 1.033-0.112 0.517-0.493 0.935-0.998 1.093-0.469 0.141-0.735 0.635-0.594 1.104 0.113 0.375 0.459 0.632 0.85 0.631 0.087 0 0.174-0.013 0.258-0.038 1.145-0.346 2.004-1.298 2.23-2.473 0.196-1.059-0.239-2.135-1.116-2.761v0z"></path>
                                                    </svg>