<svg xmlns="http://www.w3.org/2000/svg" id="icon-price" viewBox="0 0 32 32" fill="#FF7601">
                                                    <path d="M32 4.246c0-2.341-1.554-4.246-3.463-4.246h-25.075c-1.91 0-3.463 1.904-3.463 4.246v27.197c0 0.308 0.249 0.557 0.557 0.557v0h27.98c0.308 0 0.557-0.249 0.557-0.557v0-23.012c1.645-0.328 2.905-2.079 2.905-4.185v0zM1.114 30.886v-26.64c0-1.726 1.054-3.131 2.348-3.131 1.283 0 2.327 1.38 2.346 3.084h-3.208c-0.308 0-0.557 0.249-0.557 0.557 0 1.646 0.849 3.128 2.111 3.687h0.003c0.031 0.014 0.063 0.024 0.096 0.032 0.005 0 0.009 0.004 0.014 0.004 0.015 0.003 0.032 0.003 0.047 0.005 0.021 0.003 0.042 0.006 0.064 0.007h23.6v22.394h-26.864zM4.235 7.199c-0.575-0.472-0.946-1.147-1.035-1.886h2.465c-0.186 0.804-0.706 1.49-1.431 1.886h0zM28.538 7.377h-22.734c0.591-0.687 0.965-1.535 1.075-2.435 0.033-0.083 0.043-0.173 0.027-0.261 0.012-0.144 0.020-0.289 0.020-0.436 0.017-1.147-0.386-2.26-1.133-3.131h22.745c1.295 0 2.348 1.405 2.348 3.131s-1.054 3.131-2.349 3.131h0z"></path>
                                                    <path d="M6.147 15.613l0.472-0.253v6.474c0 0.308 0.249 0.557 0.557 0.557h3.072c0.308 0 0.557-0.249 0.557-0.557v-2.758h2.077v2.758c0 0.308 0.249 0.557 0.557 0.557h3.072c0.308 0 0.557-0.249 0.557-0.557v-6.471l0.48 0.255c0.273 0.144 0.61 0.040 0.755-0.232s0.040-0.61-0.232-0.755v0l-6.003-3.18c-0.164-0.087-0.36-0.087-0.524 0l-5.925 3.18c-0.274 0.141-0.381 0.477-0.24 0.751s0.477 0.381 0.751 0.24c0.005-0.003 0.011-0.006 0.016-0.009l0.001 0.001zM11.809 12.575l4.146 2.197v6.505h-1.958v-2.758c0-0.308-0.249-0.557-0.557-0.557h-3.192c-0.308 0-0.557 0.249-0.557 0.557v2.758h-1.958v-6.515l4.076-2.187z"></path>
                                                    <path d="M7.476 24.569h-1.592c-0.308 0-0.557 0.249-0.557 0.557s0.249 0.557 0.557 0.557h1.592c0.308 0 0.557-0.249 0.557-0.557s-0.249-0.557-0.557-0.557z"></path>
                                                    <path d="M13.298 24.569h-2.911c-0.308 0-0.557 0.249-0.557 0.557s0.249 0.557 0.557 0.557h2.911c0.308 0 0.557-0.249 0.557-0.557s-0.249-0.557-0.557-0.557z"></path>
                                                    <path d="M19.12 24.569h-2.912c-0.308 0-0.557 0.249-0.557 0.557s0.249 0.557 0.557 0.557h2.912c0.308 0 0.557-0.249 0.557-0.557s-0.249-0.557-0.557-0.557z"></path>
                                                    <path d="M23.622 24.569h-1.592c-0.308 0-0.557 0.249-0.557 0.557s0.249 0.557 0.557 0.557h1.592c0.308 0 0.557-0.249 0.557-0.557s-0.249-0.557-0.557-0.557z"></path>
                                                    <path d="M20.967 14.093c0.308 0 0.557-0.249 0.557-0.557v-1.592c0-0.308-0.249-0.557-0.557-0.557s-0.557 0.249-0.557 0.557v1.592c0 0.308 0.249 0.557 0.557 0.557z"></path>
                                                    <path d="M20.967 19.069c0.308 0 0.557-0.249 0.557-0.557v-2.488c0-0.308-0.249-0.557-0.557-0.557s-0.557 0.249-0.557 0.557v2.488c-0 0.308 0.249 0.557 0.557 0.558 0 0 0 0 0 0z"></path>
                                                    <path d="M20.967 24.045c0.308 0 0.557-0.249 0.557-0.557v-2.488c0-0.308-0.249-0.557-0.557-0.557s-0.557 0.249-0.557 0.557v2.488c-0 0.308 0.249 0.558 0.557 0.558 0 0 0 0 0.001 0z"></path>
                                                    <path d="M20.967 25.418c-0.308 0-0.557 0.249-0.557 0.557v1.592c0 0.308 0.249 0.557 0.557 0.557s0.557-0.249 0.557-0.557v-1.592c0-0.308-0.249-0.557-0.557-0.557z"></path>
                                                    </svg>